<svg width="114" height="24" viewBox="0 0 114 24" fill="none" xmlns="http://www.w3.org/2000/svg">
<g clip-path="url(#clip0_1038_8548)">
<path d="M3.44671 6.04521C2.02973 6.224 0.976677 6.96248 0.403691 8.17515C-0.362872 9.79982 -0.00669093 11.8754 1.20897 12.9248C2.53303 14.0597 4.74755 14.0131 5.83932 12.8237C6.00966 12.6294 6.17227 12.4972 6.1955 12.5206C6.21873 12.5361 6.18001 12.8859 6.11807 13.2979C5.97095 14.2074 5.59154 15.0625 5.14244 15.4667C4.32942 16.2052 2.82727 16.1197 1.42577 15.2491C1.10831 15.0547 0.821816 14.9226 0.790844 14.9537C0.713413 15.0392 0.0242813 16.5939 0.0242813 16.6872C0.0242813 16.726 0.186885 16.866 0.380462 16.9981C1.9523 18.0942 4.523 18.3118 6.10258 17.4878C6.98529 17.037 7.84477 16.0264 8.23192 14.9925C9.00623 12.9481 8.90557 9.97861 8.01512 8.25289C7.18661 6.66709 5.39022 5.79645 3.44671 6.04521ZM4.96435 8.20625C6.1413 8.81258 6.23421 10.7171 5.11921 11.4634C4.6856 11.751 3.83386 11.8054 3.38477 11.5722C2.81952 11.2846 2.5098 10.7871 2.44786 10.0797C2.33171 8.84368 3.16022 7.9264 4.29845 8.01968C4.49977 8.03523 4.794 8.12074 4.96435 8.20625Z" fill="#353535"/>
<path d="M13.3439 6.03755C11.2765 6.30185 9.92146 7.84101 9.90597 9.91654C9.89823 11.549 10.5796 12.7694 11.8572 13.3991C12.4457 13.6945 12.4534 13.6945 13.4136 13.6945C14.335 13.6945 14.4124 13.6789 14.8538 13.469C15.1093 13.3447 15.481 13.0726 15.6823 12.8705L16.054 12.4974V12.8005C16.054 13.2125 15.8526 14.1531 15.6745 14.5418C14.939 16.1742 13.1581 16.4385 11.2533 15.2025C10.9823 15.0315 10.7422 14.9149 10.7035 14.9538C10.6725 14.9849 10.4712 15.3891 10.2622 15.8477L9.875 16.6717L10.0376 16.8272C10.3628 17.1304 11.3694 17.6123 12.0276 17.7756C13.3594 18.1176 14.7996 18.0399 15.7984 17.5812C17.4167 16.8428 18.3846 15.1637 18.6169 12.6917C18.8879 9.77661 17.9433 7.38237 16.1546 6.47286C15.4965 6.1386 14.1569 5.92872 13.3439 6.03755ZM14.8693 8.22191C15.9533 8.75051 16.1546 10.3907 15.2332 11.2458C14.8073 11.6345 14.6138 11.7122 14.0408 11.7122C13.4833 11.7122 13.2277 11.6189 12.887 11.3002C12.4999 10.9271 12.3373 10.5229 12.3373 9.87767C12.3373 8.40847 13.5762 7.59225 14.8693 8.22191Z" fill="#353535"/>
<path d="M25.1269 6.04452C24.2907 6.1378 23.137 6.5187 22.533 6.91515C20.8605 7.99567 20.001 9.89242 20.1017 12.2944C20.1481 13.4916 20.2875 14.0668 20.7366 15.0152C21.5187 16.6632 22.9898 17.6659 25.003 17.938C26.6523 18.1557 28.5261 17.7281 29.6566 16.8653L29.8967 16.6787L29.5018 15.7925C29.2772 15.3028 29.0759 14.8986 29.0449 14.8986C29.0139 14.8986 28.7662 15.0307 28.5029 15.194C27.7054 15.6759 27.3724 15.7925 26.5207 15.9014C25.7928 15.9946 24.9488 15.8858 24.4378 15.6371C23.6403 15.2406 23.044 14.4011 22.8195 13.3516C22.6956 12.7375 22.6801 11.3772 22.7963 10.732C22.9202 10.0246 23.3383 9.22389 23.7951 8.81189C24.3913 8.27552 24.8946 8.1045 25.9245 8.1045C26.962 8.09673 27.6279 8.27552 28.4952 8.81189C28.8126 8.99846 29.0836 9.14616 29.0914 9.13061C29.2617 8.85853 29.8425 7.41266 29.8115 7.32715C29.7418 7.14058 28.9985 6.68195 28.41 6.46429C27.3879 6.07561 26.2264 5.93569 25.1269 6.04452Z" fill="#606060"/>
<path d="M36.0386 6.0526C35.272 6.13034 34.2731 6.45683 33.6614 6.82218C32.6084 7.45961 31.7489 8.63341 31.3695 9.96269C31.2146 10.5068 31.1914 10.7634 31.1914 11.9449C31.1914 13.4919 31.2998 14.0904 31.7412 14.9999C32.1748 15.8861 32.5774 16.3836 33.282 16.92C35.1249 18.3037 38.2376 18.3659 40.1734 17.0599C41.4122 16.2359 42.1323 14.9922 42.4188 13.2276C42.6279 11.9605 42.5272 10.7323 42.1169 9.50405C41.3038 7.08648 38.9577 5.75721 36.0386 6.0526ZM37.6027 8.09704C38.8261 8.41576 39.4687 9.12315 39.8327 10.5302C40.034 11.3308 40.034 12.6368 39.8249 13.453C39.4068 15.0854 38.5086 15.9017 37.0219 15.9716C35.3262 16.0571 34.1957 15.1399 33.824 13.383C33.5918 12.2559 33.7389 10.3747 34.126 9.62065C34.7764 8.36911 36.2166 7.73169 37.6027 8.09704Z" fill="#606060"/>
<path d="M60.7636 6.03732C59.215 6.20834 57.7671 7.03233 57.256 8.04289C56.8379 8.86688 56.7527 9.8619 57.016 10.7325C57.3412 11.7897 58.4097 12.5127 60.299 12.9635C63.0246 13.6165 63.5202 13.873 63.5202 14.6426C63.5202 15.5366 62.7226 15.9874 61.1353 15.9874C59.9351 15.9874 58.7349 15.6454 57.7438 15.0235L57.4264 14.8292L57.0237 15.7387L56.6211 16.6482L56.7992 16.7959C57.1709 17.0991 58.0923 17.4955 58.9518 17.7209C59.7648 17.9308 59.9584 17.9541 61.1198 17.9619C62.1961 17.9619 62.5058 17.9386 63.0865 17.7909C64.7823 17.3634 65.7734 16.3994 66.0134 14.9458C66.2302 13.6321 65.634 12.5049 64.3796 11.8752C63.6673 11.5099 63.2182 11.3622 61.8244 11.0202C60.3842 10.6703 59.7725 10.3983 59.517 10.0096C59.1763 9.50431 59.3544 8.83579 59.9274 8.43157C60.9417 7.7164 62.8388 7.89519 64.4029 8.84356C64.6894 9.01458 64.9371 9.14673 64.9449 9.13118C64.9604 9.11564 65.1307 8.72696 65.3398 8.26055C65.6185 7.63089 65.6882 7.38214 65.634 7.28886C65.5024 7.07897 64.6506 6.62811 63.977 6.41045C62.9085 6.06064 61.747 5.92849 60.7636 6.03732Z" fill="#606060"/>
<path d="M44.5508 11.9835V17.8525H45.751H46.9511V14.1523C46.9511 12.0768 46.9821 10.4755 47.0208 10.4988C47.0518 10.5221 48.3681 12.1856 49.9399 14.199L52.7971 17.8525H53.7495H54.6942V11.9835V6.10673L53.5172 6.13005L52.3326 6.15337L52.2938 9.8458L52.2551 13.5382L51.6357 12.7531C51.295 12.3178 50.5284 11.3461 49.9322 10.5843C49.336 9.82248 48.3681 8.58649 47.7796 7.83246C46.2697 5.90462 46.5485 6.11451 45.4645 6.11451H44.5508V11.9835Z" fill="#606060"/>
<path d="M67.8868 6.22393C67.8636 6.28612 67.8559 8.1129 67.8713 10.2817C67.9101 14.6582 67.9023 14.6271 68.4366 15.7154C68.9321 16.7415 69.8381 17.4489 71.0847 17.7909C71.9519 18.0319 73.8257 18.0319 74.6852 17.7909C75.7383 17.5033 76.4352 17.0525 77.0004 16.2984C77.4185 15.7387 77.5966 15.3267 77.7747 14.4716C77.9063 13.842 77.9218 13.3911 77.9218 9.93968V6.1151H76.6829H75.444V9.62874C75.444 11.5643 75.4053 13.4067 75.3666 13.7176C75.173 15.2024 74.3368 15.9797 72.9198 15.9875C71.4719 15.9953 70.6046 15.2101 70.4111 13.7332C70.3723 13.4144 70.3336 11.5643 70.3336 9.62874V6.1151H69.1335C68.1733 6.1151 67.9178 6.13842 67.8868 6.22393Z" fill="#606060"/>
<path d="M80.3003 6.16896C80.2693 6.19228 80.2461 8.83528 80.2461 12.038V17.8526H81.3688H82.4916V14.782C82.4916 13.0952 82.5148 11.7115 82.5535 11.7115C82.5845 11.7115 83.0413 12.7376 83.5679 13.9891C84.0944 15.2407 84.6906 16.6166 84.8842 17.0597L85.2326 17.8604L86.0766 17.837L86.9206 17.8137L87.2148 17.1141C87.3697 16.7254 87.6794 15.9947 87.8962 15.4817C88.1053 14.9686 88.477 14.0902 88.7093 13.5383C88.9415 12.9786 89.228 12.3178 89.3519 12.0613L89.5765 11.5949L89.5997 14.7276L89.6152 17.8526H90.7379H91.8607V11.9836V6.10677L90.8463 6.13009L89.832 6.15341L89.4448 7.04737C88.6396 8.91302 88.3763 9.52713 87.9659 10.4677C87.7336 11.0041 87.2923 12.0147 86.9826 12.722C86.6728 13.4294 86.3631 14.1524 86.2779 14.3312C86.2005 14.5177 86.1076 14.6654 86.0689 14.6654C86.0379 14.6654 85.8598 14.3234 85.6895 13.9036C85.5114 13.4916 85.132 12.621 84.8532 11.9836C84.5667 11.3384 84.1718 10.4289 83.9628 9.96244C83.1575 8.12012 82.7316 7.14065 82.5071 6.63537L82.267 6.11455H81.3069C80.7804 6.11455 80.3235 6.13787 80.3003 6.16896Z" fill="#606060"/>
<path d="M94.3159 6.16892C94.2849 6.19224 94.2617 8.83524 94.2617 12.0379V17.8525H98.2881H102.314V16.8808V15.9092L99.5502 15.8936L96.7782 15.8703V14.3933V12.9163L99.3954 12.893L102.005 12.8775V11.9058V10.9341L99.3954 10.9185L96.7782 10.8952L96.755 9.51154L96.7395 8.13563H99.527H102.314V7.12507V6.11451H98.3423C96.151 6.11451 94.3391 6.13783 94.3159 6.16892Z" fill="#606060"/>
<path d="M104.098 11.9757V17.8525H105.375H106.653V15.4816V13.1107H107.543C109.293 13.1107 109.526 13.2506 110.083 14.7043C110.284 15.2173 110.641 16.1268 110.865 16.7254L111.291 17.8137L112.646 17.837L114.001 17.8525L113.815 17.3706C113.258 15.8858 112.6 14.2378 112.429 13.9114C112.205 13.4605 111.903 13.1496 111.5 12.9397L111.198 12.7842L111.686 12.5432C112.22 12.2945 112.847 11.7037 113.08 11.245C113.591 10.2423 113.591 8.82747 113.08 7.82468C112.739 7.14839 111.965 6.61201 110.935 6.33217C110.377 6.18447 110.083 6.16892 107.218 6.13005L104.098 6.09896V11.9757ZM110.3 8.33774C110.493 8.43102 110.741 8.62536 110.842 8.76528C111.004 8.99071 111.028 9.11509 111.028 9.65924C111.028 10.2189 111.004 10.3122 110.819 10.561C110.439 11.0585 110.114 11.1284 108.24 11.1284H106.614L106.591 9.62814L106.575 8.12008L108.256 8.15117C109.781 8.17449 109.982 8.19004 110.3 8.33774Z" fill="#606060"/>
</g>
<defs>
<clipPath id="clip0_1038_8548">
<rect width="114" height="24" fill="white"/>
</clipPath>
</defs>
</svg>
