<svg width="71" height="24" viewBox="0 0 71 24" fill="none" xmlns="http://www.w3.org/2000/svg">
<g clip-path="url(#clip0_1038_8513)">
<path d="M30.2135 12.3076C30.2135 15.6389 27.6058 18.0937 24.4056 18.0937C21.2053 18.0937 18.5977 15.6389 18.5977 12.3076C18.5977 8.95279 21.2053 6.52148 24.4056 6.52148C27.6058 6.52148 30.2135 8.95279 30.2135 12.3076ZM27.671 12.3076C27.671 10.2258 26.1597 8.80148 24.4056 8.80148C22.6514 8.80148 21.1401 10.2258 21.1401 12.3076C21.1401 14.3684 22.6514 15.8137 24.4056 15.8137C26.1597 15.8137 27.671 14.3658 27.671 12.3076Z" fill="#EA4335"/>
<path d="M42.7447 12.3076C42.7447 15.6389 40.137 18.0937 36.9368 18.0937C33.7366 18.0937 31.1289 15.6389 31.1289 12.3076C31.1289 8.9554 33.7366 6.52148 36.9368 6.52148C40.137 6.52148 42.7447 8.95279 42.7447 12.3076ZM40.2023 12.3076C40.2023 10.2258 38.6909 8.80148 36.9368 8.80148C35.1827 8.80148 33.6713 10.2258 33.6713 12.3076C33.6713 14.3684 35.1827 15.8137 36.9368 15.8137C38.6909 15.8137 40.2023 14.3658 40.2023 12.3076Z" fill="#FBBC05"/>
<path d="M54.7513 6.87105V17.2589C54.7513 21.5319 52.2298 23.2771 49.2488 23.2771C46.4427 23.2771 44.7539 21.4015 44.117 19.8676L46.3305 18.9467C46.7247 19.8884 47.6905 20.9997 49.2462 20.9997C51.1543 20.9997 52.3368 19.8232 52.3368 17.6084V16.7763H52.248C51.679 17.478 50.5827 18.091 49.1992 18.091C46.3044 18.091 43.6523 15.571 43.6523 12.3284C43.6523 9.06235 46.3044 6.52148 49.1992 6.52148C50.5801 6.52148 51.6764 7.13453 52.248 7.8154H52.3368V6.87366H54.7513V6.87105ZM52.5169 12.3284C52.5169 10.291 51.1569 8.80148 49.4263 8.80148C47.6722 8.80148 46.2026 10.291 46.2026 12.3284C46.2026 14.345 47.6722 15.8137 49.4263 15.8137C51.1569 15.8137 52.5169 14.345 52.5169 12.3284Z" fill="#4285F4"/>
<path d="M58.7337 0.783203V17.7397H56.2539V0.783203H58.7337Z" fill="#34A853"/>
<path d="M68.3965 14.2126L70.3699 15.5274C69.7329 16.4691 68.1981 18.0917 65.546 18.0917C62.2571 18.0917 59.8008 15.5508 59.8008 12.3056C59.8008 8.86475 62.2779 6.51953 65.2615 6.51953C68.266 6.51953 69.7356 8.9091 70.2159 10.2004L70.4795 10.8578L62.74 14.0613C63.3325 15.2221 64.2539 15.8143 65.546 15.8143C66.8407 15.8143 67.7387 15.1778 68.3965 14.2126ZM62.3223 12.1308L67.4959 9.98388C67.2114 9.26127 66.3552 8.75779 65.3477 8.75779C64.0556 8.75779 62.2571 9.89779 62.3223 12.1308Z" fill="#EA4335"/>
<path d="M9.21151 10.803V8.34826H17.4888C17.5697 8.77609 17.6114 9.28218 17.6114 9.83C17.6114 11.6717 17.1076 13.9491 15.484 15.5717C13.9048 17.2152 11.8871 18.0917 9.21412 18.0917C4.25978 18.0917 0.09375 14.0587 0.09375 9.10739C0.09375 4.15609 4.25978 0.123047 9.21412 0.123047C11.9549 0.123047 13.9074 1.19783 15.3744 2.5987L13.6412 4.33087C12.5892 3.34479 11.164 2.57783 9.21151 2.57783C5.59364 2.57783 2.76408 5.49174 2.76408 9.10739C2.76408 12.723 5.59364 15.637 9.21151 15.637C11.5582 15.637 12.8946 14.6952 13.7508 13.8396C14.4451 13.1457 14.9019 12.1544 15.0821 10.8004L9.21151 10.803Z" fill="#4285F4"/>
</g>
<defs>
<clipPath id="clip0_1038_8513">
<rect width="71" height="24" fill="white"/>
</clipPath>
</defs>
</svg>
