<svg width="75" height="24" viewBox="0 0 75 24" fill="none" xmlns="http://www.w3.org/2000/svg">
<path d="M57.675 10.6092C57.4 11.2287 57.2625 11.9874 57.1375 12.6701V12.8092C56.25 15.0724 54.7 17.3356 53.3375 17.3356C52.6625 17.3356 52.3875 16.4379 52.1875 14.9333L51.775 12.1897L51.7 11.2287L50.275 11.0264L48.85 14.2506L48.9875 11.7851L47.5 11.5828C47.1625 12.9609 46.6125 14.2632 46.0125 15.3632C45.2125 17.0069 43.55 18.0437 41.7375 18.0437H41.675C40.25 18.0437 38.9625 17.6264 37.7375 17.0195V16.3368C40.8125 14.8195 43.5375 12.6701 45.75 10.0149V9.95172L44.6 9.05402C42.8375 11.3678 40.5875 13.2391 38.0125 14.5414L37.875 14.6046C38.0125 10.4195 38.2875 6.0954 38.4875 4.17356L37 4.03448C36.8 6.0954 36.525 10.8368 36.325 15.2874L35.3125 15.5655L34.9 16.8678L36.2625 17.8287L36.2 22.6333V22.7724H37.6875V18.6506C38.9125 19.1943 40.2625 19.5483 41.6875 19.5483H41.75C44.0625 19.5483 46.1 18.246 47.175 16.3241L46.8375 19.0046L48.2625 19.4218L50.575 14.1368L50.7125 15.1609C50.85 16.3241 51.25 18.8655 53.425 18.8655C54.7875 18.8655 56 17.8414 56.95 16.4C57.0875 17.5632 57.3625 18.6 57.9 19.346C58.4375 20.1678 59.325 20.7241 60.4125 20.7241C61.5125 20.7747 62.525 20.1552 62.9875 19.1437C63.7375 17.5632 63.4 15.1609 62.1 13.3782C61.8875 13.1379 61.6625 12.8977 61.425 12.6954H64.95V14.9586C64.8875 19.0805 65.2875 21.1414 66.3125 22.2414C66.7875 22.7218 67.4 23 68.075 23H68.1375C70.9875 23 73.0875 18.8782 73.5625 17.2345L72.075 16.8172C71.6625 18.3977 69.8375 21.4828 68.1375 21.4828C67.8 21.4828 67.6 21.3437 67.4625 21.2046C66.5125 20.2437 66.375 17.1586 66.375 14.8828V12.5437C69.3375 12.354 72.2625 11.6586 75 10.4828L74.3875 9.1046C72.35 10.0655 69.5 10.7483 66.5125 11.0264C66.575 9.1046 66.7875 7.6 67.05 5.26092L67.1875 3.4023L65.7 3.2L65.5 5.05862C65.3 6.7023 65.1625 8.76322 65.025 10.9V11.1023C65 11.0897 60.725 11.3678 57.675 10.6092ZM61.6125 18.4356C61.3375 18.9793 60.9375 19.1943 60.4625 19.1943C59.85 19.1943 59.375 18.9161 59.1 18.5115C58.35 17.3483 58.2875 15.0851 58.5625 13.2264L58.7 12.5437C59.5125 12.9609 60.4 13.6437 60.875 14.3264C61.95 15.7678 62.0875 17.5506 61.6125 18.4356ZM26.175 20.4965C25.0875 20.4965 24.6875 19.5989 24.55 18.6379C27.4 17.3356 28.625 14.377 28.625 12.9356C28.625 11.6966 27.8125 11.2161 27.0625 11.2161C25.3625 11.2161 23.125 14.1621 22.9875 17.6011L21.5625 17.7402C20.8875 17.7402 20.4125 17.6012 20.1375 17.2598C19.1875 16.2356 19.25 13.9598 19.25 12.2529V11.431L17.8875 10.9506L14.15 16.4379C14.0875 13.5552 14.2875 10.1161 14.625 7.30919C15.3 4.56552 15.9125 1.88506 15.5125 1.34138C15.375 1.13908 15.175 1 14.8375 1L14.3 1.27816C13.6 3.12414 13.2125 5.07126 13.15 7.04368C12.5375 9.38276 11.925 11.2287 11.25 13.0874L11.3875 12.746C9.825 16.4506 6.975 20.231 5.825 20.4333C5.625 20.092 5.4125 18.8529 5.625 15.3506V15.0092L5.9 12.2655L9.975 11.7218L9.7 10.2172L6.1 10.6977L6.1625 10.0149C6.3625 8.63678 6.575 6.9931 6.7 5.13448L5.2125 4.9954C5.075 6.85402 4.875 8.42184 4.675 9.8L4.6125 10.8241L0 11.3046L0.1375 12.8851L4.4125 12.4678L4.2125 14.9333V15.3506C3.9375 18.5747 4.0125 20.7747 4.825 21.5966C5.025 21.8747 5.3625 22.0138 5.7125 22.0138C6.8 22.0138 8.0875 20.9897 9.65 18.9287C10.8 17.3483 11.8875 15.5655 12.7 13.6437V13.5046C12.7 15.6287 12.7 17.6264 12.8375 18.8655L14.2 19.2069L16.2 16.1724L17.7625 13.9724C17.7625 15.6161 18.0375 17.3356 19.05 18.3724C19.7125 19.0552 20.625 19.4218 21.5625 19.3966L23.1875 19.1943H23.05C23.3875 21.0529 24.475 22.077 26.1 22.077C28.95 22.077 30.5125 19.1943 30.9875 16.7161L29.5 16.4379C29.5 16.577 28.6875 20.5598 26.1125 20.5598L26.175 20.4965ZM27.0625 12.8092V12.9483C27.0625 13.631 26.3875 15.7678 24.55 16.931C24.8875 14.5287 26.45 12.8092 27.0625 12.8092Z" fill="#E64C38"/>
</svg>
