<svg width="98" height="24" viewBox="0 0 98 24" fill="none" xmlns="http://www.w3.org/2000/svg">
<g clip-path="url(#clip0_1038_8509)">
<path d="M25.7547 8.50586H35.6776V10.352H31.7759V20.7302H29.6305V10.352H25.7461V8.50586H25.7547ZM35.2537 11.879H37.0877V13.5871H37.1223C37.1829 13.3455 37.2954 13.1126 37.4597 12.8883C37.6241 12.664 37.8231 12.4483 38.0566 12.2672C38.2902 12.0774 38.5498 11.9307 38.8353 11.81C39.1207 11.6978 39.4149 11.6374 39.709 11.6374C39.9339 11.6374 40.0983 11.646 40.1848 11.6547C40.2713 11.6633 40.3579 11.6806 40.453 11.6892V13.5698C40.3146 13.544 40.1762 13.5267 40.0291 13.5095C39.882 13.4922 39.7436 13.4836 39.6052 13.4836C39.2765 13.4836 38.965 13.5526 38.6709 13.682C38.3767 13.8114 38.1259 14.0098 37.9096 14.26C37.6933 14.5188 37.5203 14.8294 37.3905 15.2089C37.2607 15.5885 37.2002 16.0199 37.2002 16.5116V20.7215H35.245V11.879H35.2537ZM49.4415 20.7302H47.521V19.4965H47.4864C47.2442 19.9451 46.8895 20.2988 46.4136 20.5662C45.9378 20.8337 45.4534 20.9717 44.9603 20.9717C43.7923 20.9717 42.9445 20.687 42.4255 20.109C41.9064 19.531 41.6469 18.6597 41.6469 17.4951V11.879H43.602V17.3053C43.602 18.0817 43.7491 18.6338 44.0519 18.953C44.346 19.2722 44.7699 19.4361 45.3063 19.4361C45.7216 19.4361 46.0589 19.3757 46.3358 19.2463C46.6126 19.1169 46.8375 18.953 47.0019 18.7373C47.1749 18.5303 47.2961 18.2715 47.3739 17.9782C47.4518 17.6849 47.4864 17.3657 47.4864 17.0206V11.8876H49.4415V20.7302ZM52.7722 17.8919C52.8328 18.4613 53.0491 18.8581 53.4211 19.091C53.8017 19.3153 54.2516 19.4361 54.7793 19.4361C54.961 19.4361 55.1686 19.4189 55.4022 19.393C55.6357 19.3671 55.8607 19.3067 56.0596 19.2291C56.2673 19.1514 56.4317 19.0307 56.5701 18.8754C56.6998 18.7201 56.7604 18.5217 56.7517 18.2715C56.7431 18.0213 56.6479 17.8143 56.4749 17.659C56.3019 17.4951 56.0856 17.3743 55.8174 17.2708C55.5492 17.1759 55.2464 17.0896 54.9004 17.0206C54.5544 16.9516 54.2083 16.8739 53.8536 16.7963C53.4903 16.7187 53.1356 16.6151 52.7982 16.503C52.4608 16.3908 52.158 16.2355 51.8898 16.0371C51.6216 15.8473 51.4053 15.5972 51.2496 15.2952C51.0853 14.9933 51.0074 14.6223 51.0074 14.1737C51.0074 13.6906 51.1285 13.2938 51.3621 12.966C51.5957 12.6381 51.8985 12.3793 52.2532 12.1809C52.6165 11.9825 53.0145 11.8445 53.4557 11.7582C53.8969 11.6806 54.3208 11.6374 54.7187 11.6374C55.1772 11.6374 55.6184 11.6892 56.0337 11.7841C56.449 11.879 56.8296 12.0343 57.167 12.2586C57.5044 12.4742 57.7812 12.7589 58.0062 13.104C58.2311 13.4491 58.3695 13.8718 58.4301 14.3635H56.3884C56.2932 13.8977 56.0856 13.5785 55.7482 13.4232C55.4108 13.2593 55.0215 13.1816 54.589 13.1816C54.4505 13.1816 54.2862 13.1903 54.0958 13.2161C53.9055 13.242 53.7325 13.2852 53.5595 13.3455C53.3951 13.4059 53.2567 13.5008 53.1356 13.6216C53.0231 13.7424 52.9625 13.8977 52.9625 14.0961C52.9625 14.3376 53.0491 14.5274 53.2134 14.6741C53.3778 14.8207 53.5941 14.9415 53.8623 15.045C54.1304 15.1399 54.4332 15.2262 54.7793 15.2952C55.1253 15.3642 55.48 15.4419 55.8434 15.5195C56.1981 15.5972 56.5441 15.7007 56.8902 15.8128C57.2362 15.925 57.539 16.0803 57.8072 16.2787C58.0754 16.4771 58.2916 16.7187 58.456 17.012C58.6204 17.3053 58.7069 17.6762 58.7069 18.1076C58.7069 18.6338 58.5858 19.0738 58.3435 19.4448C58.1013 19.8071 57.7899 20.109 57.4092 20.3333C57.0286 20.5576 56.596 20.7302 56.1289 20.8337C55.6617 20.9372 55.1945 20.989 54.736 20.989C54.1737 20.989 53.6546 20.9286 53.1788 20.7992C52.703 20.6698 52.2878 20.48 51.9417 20.2298C51.5957 19.971 51.3188 19.6518 51.1199 19.2722C50.9209 18.8926 50.8171 18.4354 50.7998 17.9092H52.7722V17.8919ZM59.226 11.879H60.7053V9.22189H62.6605V11.879H64.4253V13.3369H62.6605V18.0644C62.6605 18.2715 62.6691 18.444 62.6864 18.5993C62.7037 18.746 62.747 18.8754 62.8075 18.9789C62.8681 19.0824 62.9632 19.1601 63.093 19.2118C63.2228 19.2636 63.3872 19.2895 63.6121 19.2895C63.7505 19.2895 63.8889 19.2895 64.0273 19.2808C64.1658 19.2722 64.3042 19.255 64.4426 19.2205V20.7302C64.2263 20.756 64.01 20.7733 63.8111 20.7992C63.6034 20.8251 63.3958 20.8337 63.1795 20.8337C62.6605 20.8337 62.2452 20.7819 61.9338 20.687C61.6223 20.5921 61.3714 20.4455 61.1984 20.2557C61.0167 20.0659 60.9043 19.833 60.8351 19.5483C60.7745 19.2636 60.7313 18.9358 60.7226 18.5734V13.3542H59.2433V11.879H59.226ZM65.8095 11.879H67.6608V13.0781H67.6954C67.9723 12.5605 68.3529 12.1982 68.846 11.9739C69.3391 11.7496 69.8668 11.6374 70.4465 11.6374C71.1472 11.6374 71.7528 11.7582 72.2719 12.0084C72.7909 12.2499 73.2235 12.5864 73.5695 13.0177C73.9156 13.4491 74.1665 13.9494 74.3395 14.5188C74.5125 15.0882 74.599 15.7007 74.599 16.3477C74.599 16.943 74.5212 17.521 74.3654 18.0731C74.2097 18.6338 73.9761 19.1256 73.6647 19.5569C73.3533 19.9882 72.9553 20.3247 72.4708 20.5835C71.9864 20.8423 71.4241 20.9717 70.7666 20.9717C70.4811 20.9717 70.1956 20.9458 69.9101 20.8941C69.6246 20.8423 69.3478 20.756 69.0882 20.6439C68.8287 20.5317 68.5778 20.3851 68.3616 20.2039C68.1366 20.0228 67.955 19.8157 67.7992 19.5828H67.7646V23.9997H65.8095V11.879ZM72.6439 16.3132C72.6439 15.9164 72.592 15.5281 72.4881 15.1486C72.3843 14.769 72.2286 14.4412 72.021 14.1478C71.8134 13.8545 71.5538 13.6216 71.251 13.4491C70.9396 13.2765 70.5849 13.1816 70.1869 13.1816C69.3651 13.1816 68.7422 13.4663 68.3269 14.0357C67.9117 14.6051 67.7041 15.3642 67.7041 16.3132C67.7041 16.7618 67.756 17.1759 67.8684 17.5555C67.9809 17.935 68.1366 18.2629 68.3616 18.5389C68.5778 18.815 68.8374 19.0307 69.1402 19.1859C69.4429 19.3499 69.7976 19.4275 70.1956 19.4275C70.6455 19.4275 71.0175 19.3326 71.3289 19.1514C71.6403 18.9703 71.8912 18.7287 72.0902 18.444C72.2892 18.1507 72.4362 17.8229 72.5227 17.4519C72.6006 17.081 72.6439 16.7014 72.6439 16.3132ZM76.0957 8.50586H78.0508V10.352H76.0957V8.50586ZM76.0957 11.879H78.0508V20.7302H76.0957V11.879ZM79.7984 8.50586H81.7535V20.7302H79.7984V8.50586ZM87.7487 20.9717C87.0393 20.9717 86.4078 20.8509 85.8541 20.618C85.3005 20.3851 84.8333 20.0573 84.444 19.6518C84.0634 19.2377 83.7692 18.746 83.5702 18.1766C83.3713 17.6072 83.2675 16.9775 83.2675 16.2959C83.2675 15.623 83.3713 15.0019 83.5702 14.4325C83.7692 13.8632 84.0634 13.3714 84.444 12.9573C84.8247 12.5432 85.3005 12.224 85.8541 11.9911C86.4078 11.7582 87.0393 11.6374 87.7487 11.6374C88.4581 11.6374 89.0897 11.7582 89.6433 11.9911C90.197 12.224 90.6642 12.5519 91.0535 12.9573C91.4341 13.3714 91.7283 13.8632 91.9272 14.4325C92.1262 15.0019 92.23 15.623 92.23 16.2959C92.23 16.9775 92.1262 17.6072 91.9272 18.1766C91.7283 18.746 91.4341 19.2377 91.0535 19.6518C90.6728 20.0659 90.197 20.3851 89.6433 20.618C89.0897 20.8509 88.4581 20.9717 87.7487 20.9717ZM87.7487 19.4275C88.1813 19.4275 88.5619 19.3326 88.882 19.1514C89.2021 18.9703 89.4617 18.7287 89.6693 18.4354C89.8769 18.1421 90.024 17.8056 90.1278 17.4347C90.223 17.0637 90.2749 16.6841 90.2749 16.2959C90.2749 15.9164 90.223 15.5454 90.1278 15.1658C90.0326 14.7862 89.8769 14.4584 89.6693 14.1651C89.4617 13.8718 89.2021 13.6389 88.882 13.4577C88.5619 13.2765 88.1813 13.1816 87.7487 13.1816C87.3162 13.1816 86.9355 13.2765 86.6154 13.4577C86.2953 13.6389 86.0358 13.8804 85.8282 14.1651C85.6206 14.4584 85.4735 14.7862 85.3697 15.1658C85.2745 15.5454 85.2226 15.9164 85.2226 16.2959C85.2226 16.6841 85.2745 17.0637 85.3697 17.4347C85.4648 17.8056 85.6206 18.1421 85.8282 18.4354C86.0358 18.7287 86.2953 18.9703 86.6154 19.1514C86.9355 19.3412 87.3162 19.4275 87.7487 19.4275ZM92.801 11.879H94.2803V9.22189H96.2355V11.879H98.0003V13.3369H96.2355V18.0644C96.2355 18.2715 96.2441 18.444 96.2614 18.5993C96.2787 18.746 96.322 18.8754 96.3826 18.9789C96.4431 19.0824 96.5383 19.1601 96.6681 19.2118C96.7978 19.2636 96.9622 19.2895 97.1871 19.2895C97.3255 19.2895 97.464 19.2895 97.6024 19.2808C97.7408 19.2722 97.8792 19.255 98.0176 19.2205V20.7302C97.8014 20.756 97.5851 20.7733 97.3861 20.7992C97.1785 20.8251 96.9708 20.8337 96.7546 20.8337C96.2355 20.8337 95.8202 20.7819 95.5088 20.687C95.1974 20.5921 94.9465 20.4455 94.7735 20.2557C94.5918 20.0659 94.4793 19.833 94.4101 19.5483C94.3496 19.2636 94.3063 18.9358 94.2976 18.5734V13.3542H92.8183V11.879H92.801Z" fill="#191919"/>
<path d="M23.4705 8.50611H14.5079L11.7396 0L8.96257 8.50611L0 8.49748L7.2583 13.7599L4.48128 22.2574L11.7396 17.0036L18.9892 22.2574L16.2209 13.7599L23.4705 8.50611Z" fill="#00B67A"/>
<path d="M16.8424 15.6836L16.2196 13.7598L11.7383 17.0035L16.8424 15.6836Z" fill="#005128"/>
</g>
<defs>
<clipPath id="clip0_1038_8509">
<rect width="98" height="24" fill="white"/>
</clipPath>
</defs>
</svg>
