<svg width="134" height="24" viewBox="0 0 134 24" fill="none" xmlns="http://www.w3.org/2000/svg">
<path d="M10.0352 10.9637C10.6889 10.9637 11.2188 10.4341 11.2188 9.7807C11.2188 9.12732 10.6889 8.59766 10.0352 8.59766C9.38149 8.59766 8.85156 9.12732 8.85156 9.7807C8.85156 10.4341 9.38149 10.9637 10.0352 10.9637Z" fill="#13B3BA"/>
<path d="M10.0336 8.18304C10.8353 8.18304 11.4852 7.53345 11.4852 6.73214C11.4852 5.93084 10.8353 5.28125 10.0336 5.28125C9.23194 5.28125 8.58203 5.93084 8.58203 6.73214C8.58203 7.53345 9.23194 8.18304 10.0336 8.18304Z" fill="#13B3BA"/>
<path d="M13.7666 6.90122C12.985 6.90122 12.315 7.54854 12.315 8.35211C12.315 8.84319 12.583 9.2673 12.918 9.53515C11.779 10.8968 10.9081 12.5485 10.3721 14.3566V11.5218H9.76912V14.3119C9.25548 12.5039 8.36218 10.8298 7.24555 9.51283C7.64754 9.24497 7.84853 8.82087 7.84853 8.3298C7.84853 7.54855 7.20089 6.87891 6.39692 6.87891C5.59295 6.87891 4.94531 7.52623 4.94531 8.3298C4.94531 9.13337 5.59295 9.78069 6.39692 9.78069C6.44159 9.78069 6.53092 9.78069 6.57558 9.78069C8.5855 12.0128 9.81379 15.3387 9.76912 18.7093H10.3721C10.3274 15.3387 11.5557 12.0128 13.5656 9.78069C13.6103 9.78069 13.6996 9.78069 13.7443 9.78069C14.5259 9.78069 15.1959 9.13337 15.1959 8.3298C15.1512 7.54855 14.5483 6.90122 13.7666 6.90122Z" fill="#13B3BA"/>
<path d="M10.0273 2.625C15.1861 2.625 19.3846 6.82143 19.3846 11.9777C19.3846 17.1339 15.1861 21.3527 10.0273 21.3527C4.86847 21.3527 0.647641 17.1339 0.647641 11.9777C0.647641 6.82143 4.86847 2.625 10.0273 2.625ZM10.0273 2C4.51116 2 0 6.46429 0 12.0223C0 17.5804 4.51116 22 10.0273 22C15.5434 22 20.0545 17.5357 20.0545 11.9777C20.0545 6.41965 15.5881 2 10.0273 2Z" fill="#13B3BA"/>
<path d="M23.7031 6.90206H25.5791L27.9463 14.2905L30.3805 6.85742H31.8768L34.3334 14.2905L36.7006 6.90206H38.5319L35.0703 16.969H33.5517L31.0952 9.78153L28.6386 16.969H27.0977L23.7031 6.90206Z" fill="#13B3BA"/>
<path d="M40.0273 6.9043H47.4194V8.4668H41.7693V11.0561H46.7717V12.6186H41.7693V15.2972H47.5087V16.882H40.0273V6.9043Z" fill="#13B3BA"/>
<path d="M49.4258 6.9043H53.1553C56.3042 6.9043 58.4481 9.04716 58.4481 11.882V11.9266C58.4481 14.7168 56.2595 16.9043 53.1553 16.9043H49.4258V6.9043ZM51.1677 8.4668V15.2525H53.133C55.2322 15.2525 56.5945 13.8463 56.5945 11.882V11.8373C56.5945 9.87305 55.2322 8.42216 53.133 8.42216H51.1677V8.4668Z" fill="#13B3BA"/>
<path d="M60.375 6.9043H64.1045C67.2534 6.9043 69.3973 9.04716 69.3973 11.882V11.9266C69.3973 14.7168 67.2087 16.9043 64.1045 16.9043H60.375V6.9043ZM62.1393 8.4668V15.2525H64.1045C66.2038 15.2525 67.5661 13.8463 67.5661 11.882V11.8373C67.5661 9.87305 66.2038 8.42216 64.1045 8.42216H62.1393V8.4668Z" fill="#13B3BA"/>
<path d="M71.3594 6.9043H73.1236V16.882H71.3594V6.9043Z" fill="#13B3BA"/>
<path d="M75.5642 6.9043H77.1945L82.5319 13.8016V6.9043H84.2292V16.882H82.7552L77.2391 9.78377V16.882H75.5195V6.9043H75.5642Z" fill="#13B3BA"/>
<path d="M86.207 11.9275C86.207 9.09263 88.3509 6.72656 91.3658 6.72656C93.1078 6.72656 94.1574 7.21764 95.207 8.08817L94.1127 9.40513C93.3311 8.75781 92.5718 8.35602 91.3212 8.35602C89.4899 8.35602 88.083 9.98549 88.083 11.9051V11.9498C88.083 14.0033 89.4452 15.5435 91.4998 15.5435C92.4601 15.5435 93.2864 15.231 93.9117 14.8069V12.9319H91.3658V11.3917H95.609V15.5882C94.604 16.4141 93.1971 17.173 91.4552 17.173C88.2616 17.0391 86.207 14.8069 86.207 11.9275Z" fill="#13B3BA"/>
<path d="M96.5273 6.90206H97.7556L100.592 15.2056L103.361 6.85742H104.277L107.046 15.2056L109.882 6.90206H111.066L107.47 16.969H106.51L103.763 8.86635L100.994 16.969H100.034L96.5273 6.90206Z" fill="#13B3BA"/>
<path d="M112.762 6.9043H113.901V16.882H112.762V6.9043Z" fill="#13B3BA"/>
<path d="M116.585 6.9043H120.873C122.101 6.9043 123.106 7.26144 123.709 7.90876C124.2 8.39983 124.491 9.0918 124.491 9.87305V9.91769C124.491 11.5695 123.352 12.5516 121.766 12.8418L124.826 16.9043H123.419L120.538 13.0204H117.701V16.9043H116.562V6.9043H116.585ZM120.783 11.9713C122.28 11.9713 123.374 11.19 123.374 9.91769V9.87305C123.374 8.64537 122.414 7.90876 120.828 7.90876H117.768V11.9713H120.783Z" fill="#13B3BA"/>
<path d="M126.695 6.9043H133.909V7.90876H127.834V11.3239H133.306V12.3284H127.834V15.8329H133.998V16.8373H126.695V6.9043Z" fill="#13B3BA"/>
</svg>
